<?xml version="1.0" encoding="UTF-8" standalone="no"?>
<!-- Created with Inkscape (http://www.inkscape.org/) -->

<svg
   xmlns:svg="http://www.w3.org/2000/svg"
   xmlns="http://www.w3.org/2000/svg"
   version="1.1"
   width="178.76076"
   height="52.403751"
   id="svg3366">
  <defs
     id="defs3368" />
  <g
     transform="translate(-590.61988,-569.01745)"
     id="layer1">
    <path
       d="m 590.61988,595.21995 c 0,-14.47125 11.73125,-26.2025 26.2025,-26.2025 14.46875,0 26.2,11.73125 26.2,26.2025 0,14.47125 -11.73125,26.20125 -26.2,26.20125 -14.47125,0 -26.2025,-11.73 -26.2025,-26.20125"
       id="path218"
       style="fill:#7cc242;fill-opacity:1;fill-rule:nonzero;stroke:none" />
    <path
       d="m 627.79051,608.67808 c 0,-0.008 10e-4,-0.0163 10e-4,-0.0225 0,-3.96125 -2.11375,-7.42625 -5.275,-9.3325 2.925,-1.8125 4.93125,-4.97375 5.14875,-8.6075 0,0 0,-0.28125 -0.3575,-0.28 0,0 -4.5425,-0.01 -4.88625,-0.009 -0.34375,0 -0.44375,0.27 -0.44375,0.27 -0.32875,2.5725 -2.525,4.5625 -5.18875,4.5625 -2.61125,0 -4.775,-1.915 -5.165,-4.41875 -0.02,-0.15875 -0.0225,-0.41375 -0.57625,-0.41375 l -4.58375,0.008 c -0.48,-0.01 -0.495,0.23125 -0.46875,0.425 0.26375,3.6025 2.28875,6.72875 5.2125,8.51 -3.1175,1.915 -5.19875,5.3575 -5.19875,9.28625 0,0.006 10e-4,0.015 10e-4,0.0225 0,0 -0.0337,0.4175 0.5525,0.41875 0.58125,0.003 4.14,-0.0237 4.70625,-0.02 0.56625,0.004 0.46625,-0.42375 0.46625,-0.42375 -0.002,-0.0275 -0.005,-0.0538 -0.005,-0.0813 0,-2.835 2.3,-5.13375 5.13625,-5.13375 2.835,0 5.1325,2.29875 5.1325,5.13375 0,0.0275 -0.1225,0.48875 0.55,0.49625 0.62,0.007 4.30625,0.009 4.795,0.006 0.52125,-0.004 0.44625,-0.39625 0.44625,-0.39625"
       id="path222"
       style="fill:#ffffff;fill-opacity:1;fill-rule:nonzero;stroke:none" />
    <path
       d="m 606.41101,589.42808 c 0.4125,0.004 4.37375,-0.0138 4.83125,-0.005 0.39875,0.007 0.37125,-0.22625 0.37125,-0.22625 0.36625,-2.53 2.54375,-4.505 5.17625,-4.505 2.6325,0 4.80875,1.975 5.175,4.505 0,0 -0.0213,0.25375 0.4575,0.2475 l 4.8725,-0.001 c 0.35625,-0.01 0.3525,-0.25625 0.3525,-0.25625 -0.45625,-5.57875 -5.125,-9.96625 -10.8225,-9.96625 -5.695,0 -10.365,4.3875 -10.82125,9.96625 0,0 -0.0438,0.2375 0.4075,0.24125"
       id="path226"
       style="fill:#ffffff;fill-opacity:1;fill-rule:nonzero;stroke:none" />
    <path
       d="m 714.78626,600.29545 c -0.19625,0.26875 -0.4725,0.28125 -0.4725,0.28125 l -5.10875,0.0113 c 0,0 -0.39125,-0.004 -0.635,-0.2475 -0.17375,-0.175 -0.2,-0.55375 -0.2,-0.55375 0.22875,-6.7325 0.1625,-7.85125 0.1625,-15.00125 l -2.715,0.0713 c 0,0 -0.1775,0.0362 -0.30375,-0.11125 -0.12875,-0.14875 -0.07,-0.32 -0.07,-0.32 l 0.34625,-3.7825 c 0,0 0.015,-0.11125 0.0712,-0.195 0.0812,-0.12625 0.26875,-0.12 0.26875,-0.12 l 2.37875,-0.002 -0.04,-0.79625 c 0,-1.9075 -0.0375,-4.7575 2.31,-6.51125 1.51625,-1.13125 3.48625,-1.34125 5.42,-1.34125 0.8075,0 1.61375,0.03 2.45375,0.0913 0.0662,0.004 0.205,-0.004 0.30625,0.1125 0.1025,0.1175 0.07,0.31 0.07,0.31 l -0.30875,3.88875 c 0,0 0.0225,0.2075 -0.11125,0.31875 -0.135,0.11125 -0.29625,0.0775 -0.3575,0.07 -0.31625,-0.04 -0.635,-0.0937 -0.95375,-0.0937 -2.46375,0 -2.5025,0.8625 -2.5025,3.19 l -0.0362,0.7425 3.2125,0 c 0,0 0.20875,-0.0137 0.33375,0.105 0.12625,0.11875 0.0738,0.335 0.0738,0.335 l -0.3075,3.7625 c 0,0 0.0112,0.22125 -0.1075,0.34 -0.11875,0.11875 -0.41625,0.1 -0.41625,0.1 l -2.77625,-0.13875 c 0.0288,6.94375 -0.0175,8.10375 0.2025,14.93 0,0 0.0213,0.2725 -0.1875,0.555"
       id="path230"
       style="fill:#7cc242;fill-opacity:1;fill-rule:nonzero;stroke:none" />
    <path
       d="m 731.04001,595.57195 c -0.89875,0.5125 -2.05375,1.11125 -3.46375,1.11125 -1.54,0 -2.82,-0.8125 -2.82,-2.6075 0,-2.82125 3.37625,-3.51875 6.28375,-3.9025 l 0,5.39875 z m 5.38125,4.9775 c 0,0 0.35125,0.0588 0.66875,-0.2575 0.31625,-0.3175 0.2125,-0.7075 0.2125,-0.7075 0,-3.725 -0.015,-4.00375 -0.015,-7.5975 l 0.0388,-2.8275 c 0.0375,-3.44 0.0375,-4.9325 -0.95375,-6.53875 -0.7625,-1.22375 -2.285,-2.755 -7.17125,-2.755 -3.29625,0 -5.2,0.5675 -7.375,1.21875 0,0 -0.22125,0.09 -0.27125,0.16625 -0.0488,0.07 -0.0775,0.18375 -0.0775,0.18375 l -0.17875,3.875 c 0,0 -0.0338,0.2225 0.13,0.3325 0.1625,0.1125 0.2875,0.065 0.35625,0.0375 1.37125,-0.5475 3.74,-1.4525 6.18625,-1.4525 1.42125,0 1.995,0.23125 2.49375,0.7275 0.3825,0.3825 0.49625,1.07 0.49625,1.64375 -4.5975,0.6125 -6.74,1.03125 -9.02625,2.44625 -2.13625,1.33875 -2.8625,3.5175 -2.8625,5.23625 0,4.12 2.93625,6.76125 6.6775,6.76125 2.875,0 4.52375,-1.37875 5.32625,-2.02875 l 0,0.61125 c 0,0 -0.009,0.435 0.13875,0.6675 0.1475,0.2325 0.5975,0.255 0.5975,0.255 l 4.60875,0.002 z"
       id="path234"
       style="fill:#7cc242;fill-opacity:1;fill-rule:nonzero;stroke:none" />
    <path
       d="m 667.80513,576.66508 c 4.995,-0.14375 7.23875,4.8375 7.23875,9.53125 0,5.69875 -2.24375,9.91375 -7.14125,9.91375 -5.4225,0 -7.0925,-5.5075 -7.0925,-9.91375 0,-4.35875 1.86125,-9.53125 6.995,-9.53125 m 0.02,-5.11625 c -8.78,0 -14.77875,5.7625 -14.77875,14.6025 0,9.58375 5.92125,15.0725 14.77875,15.0725 8.34875,0 14.815,-5.41 14.815,-14.99375 0,-7.43 -4.7425,-14.68125 -14.815,-14.68125"
       id="path238"
       style="fill:#7cc242;fill-opacity:1;fill-rule:nonzero;stroke:none" />
    <path
       d="m 697.82213,600.36995 c -0.14625,-0.11875 -0.2425,-0.3025 -0.2425,-0.3025 l -3.64625,-5.91 -3.9875,5.9525 -0.2225,0.24625 c -0.20875,0.2275 -0.64875,0.18625 -0.64875,0.18625 l -5.15625,0.004 c -0.38125,0.01 -0.48625,-0.10125 -0.5275,-0.1675 -0.21,-0.3325 0.14625,-0.715 0.14625,-0.715 l 6.7775,-9.71375 -6.37375,-8.81625 -0.17375,-0.27625 c -0.0412,-0.11125 -0.0462,-0.2375 0.015,-0.3425 0.06,-0.1025 0.13625,-0.15 0.24375,-0.17 l 0.735,0.007 5.23625,0 c 0,0 0.35125,-0.015 0.50625,0.15625 0.09,0.0963 0.2675,0.3275 0.2675,0.3275 l 3.1625,4.8675 3.17125,-4.79375 c 0,0 0.22625,-0.3875 0.4075,-0.50625 0.1275,-0.0812 0.6325,-0.0512 0.6325,-0.0512 l 5.31,-0.009 c 0,0 0.3925,-0.035 0.46875,0.30125 0.0413,0.19 -0.22375,0.48875 -0.22375,0.48875 l -6.2825,8.69875 6.93,9.99 c 0,0 0.3775,0.6475 -0.27875,0.7375 l -5.6725,-0.005 c 0,0 -0.3925,-0.0425 -0.57375,-0.185"
       id="path242"
       style="fill:#7cc242;fill-opacity:1;fill-rule:nonzero;stroke:none" />
    <path
       d="m 762.69763,579.73395 c -1.28375,0 -2.79,0.1125 -3.92375,0.41625 -1.80125,0.4525 -2.55375,1.16125 -3.15125,1.69 -0.78875,-0.68 -2.56875,-2.2225 -6.26,-2.2225 -0.58625,0 -1.39875,0.04 -2.29125,0.17125 -3.1825,0.2925 -4.915,1.32125 -5.4975,1.87125 0,0 -0.31625,0.21125 -0.32625,0.67125 -0.002,0.0362 -0.002,17.325 -0.002,17.325 0,0.7225 0.3,0.87375 0.94,0.87375 l 4.51625,0 c 0.7875,0 0.9375,-0.26625 0.9375,-0.95 l 0,-12.7975 c 0,-0.9475 -0.0662,-1.70625 0.57375,-2.35 0.41625,-0.4175 0.93125,-0.68375 1.61125,-0.68375 0.7175,0 1.8725,0.38 2.1725,1.66875 0.0762,0.38 0.115,0.75875 0.115,1.5175 l 0,12.685 c 0,0.79625 0.3375,0.91 1.0125,0.91 l 4.46375,0 c 0.71125,0 0.86,-0.2275 0.86,-0.87125 l 0,-12.67875 c 0,-1.21625 -0.10375,-1.8625 0.53875,-2.47125 0.3,-0.34125 1.02375,-0.665 1.96625,-0.665 2.18875,0 2.0625,1.80625 2.0625,3.13625 l 0,12.67625 c 0,0.6075 0.1875,0.87375 0.86125,0.87375 l 4.75375,0 c 0.6375,0 0.75,-0.30375 0.75,-0.91125 l 0,-13.41625 c -0.0375,-1.78625 -0.4175,-6.46875 -6.6825,-6.46875"
       id="path246"
       style="fill:#7cc242;fill-opacity:1;fill-rule:nonzero;stroke:none" />
    <path
       d="m 653.95188,606.34483 1.51375,0 0,11.4125 -1.51375,0 0,-11.4125 z"
       id="path248"
       style="fill:#7cc242;fill-opacity:1;fill-rule:nonzero;stroke:none" />
    <path
       d="m 658.00288,609.51658 1.26,0 0,1.17125 0.0312,0 c 0.81125,-1.2475 2.035,-1.35875 2.59,-1.35875 0.86,0 1.99,0.31875 2.46875,1.215 0.36875,0.68375 0.36875,1.27125 0.36875,2.145 l 0,5.06875 -1.40625,0 0,-5.00625 c 0,-0.715 0,-2.2075 -1.71625,-2.2075 -0.79375,0 -1.60375,0.4125 -1.90625,1.0325 -0.27,0.5875 -0.28625,1.1925 -0.28625,1.685 l 0,4.49625 -1.40375,0 0,-8.24125 z"
       id="path252"
       style="fill:#7cc242;fill-opacity:1;fill-rule:nonzero;stroke:none" />
    <path
       d="m 670.04626,617.73933 c -0.23875,0.0475 -0.59125,0.1275 -1.0525,0.1275 -1.945,0 -1.945,-1.15875 -1.945,-2.52625 l 0,-4.74 -1.01875,0 0,-1.08375 1.01875,0 0,-2.055 1.405,-0.84375 0,2.89875 1.4025,0 0,1.08375 -1.4025,0 0,4.82 c 0,0.6675 0,1.145 0.78,1.145 0.24,0 0.4625,-0.0325 0.6225,-0.065 l 0.19,1.23875 z"
       id="path256"
       style="fill:#7cc242;fill-opacity:1;fill-rule:nonzero;stroke:none" />
    <path
       d="m 676.95788,615.10383 c -0.17625,0.47875 -0.605,1.705 -2.1825,1.705 -1.2425,0 -2.405,-0.84375 -2.5175,-2.82 l 6.1825,0 c 0.12625,-4.4575 -3.0425,-4.6625 -3.74375,-4.6625 -2.51625,0 -3.87125,1.86 -3.87125,4.37875 0,2.54625 1.385,4.2425 3.95,4.2425 2.04125,0 3.20125,-1.1075 3.6175,-2.6675 l -1.435,-0.17625 z m -4.61875,-2.2525 c 0.0788,-1.08875 0.795,-2.38625 2.3575,-2.38625 1.00375,0 1.8,0.62375 2.085,1.32875 0.16,0.4 0.19375,0.7525 0.225,1.0575 l -4.6675,0 z"
       id="path260"
       style="fill:#7cc242;fill-opacity:1;fill-rule:nonzero;stroke:none" />
    <path
       d="m 680.06338,609.51845 1.275,0 0,1.24375 0.0337,0 c 0.3175,-0.6375 0.7475,-1.43375 1.75,-1.43375 0.7175,0 1.195,0.3025 1.43375,0.445 l -0.47625,1.29 c -0.3025,-0.175 -0.655,-0.30125 -1.02,-0.30125 -1.45125,0 -1.5925,1.82875 -1.5925,2.67125 l 0,4.32375 -1.40375,0 0,-8.23875 z"
       id="path264"
       style="fill:#7cc242;fill-opacity:1;fill-rule:nonzero;stroke:none" />
    <path
       d="m 685.96913,609.51658 1.26125,0 0,1.17125 0.03,0 c 0.8125,-1.2475 2.03625,-1.35875 2.59,-1.35875 0.86,0 1.99,0.31875 2.46875,1.215 0.3675,0.68375 0.3675,1.27125 0.3675,2.145 l 0,5.06875 -1.405,0 0,-5.00625 c 0,-0.715 0,-2.2075 -1.71625,-2.2075 -0.795,0 -1.60375,0.4125 -1.90625,1.0325 -0.26875,0.5875 -0.285,1.1925 -0.285,1.685 l 0,4.49625 -1.405,0 0,-8.24125 z"
       id="path268"
       style="fill:#7cc242;fill-opacity:1;fill-rule:nonzero;stroke:none" />
    <path
       d="m 695.93738,612.06483 c 0.17625,-0.695 0.4,-1.6 2.15875,-1.6 2.06375,0 2.0475,1.17875 2.015,2.07375 -0.8,0.285 -2.31875,0.4425 -2.52625,0.47375 -0.91125,0.11125 -3.25,0.38 -3.25,2.56125 0,1.36125 1,2.37125 2.81875,2.37125 0.89375,0 1.87,-0.2075 3.05375,-1.2175 0.0312,0.22125 0.0638,0.6025 0.2875,1.03 l 1.46625,0 c -0.445,-0.7925 -0.445,-1.33125 -0.445,-3.44 l 0,-1.8725 c 0,-1.44625 0,-3.11875 -3.21,-3.11875 -3.19375,0 -3.575,1.8175 -3.73375,2.56 l 1.365,0.17875 z m 4.17375,2.0775 c 0,0.6725 -0.0625,1.32125 -0.62375,1.92125 -0.65625,0.69625 -1.59625,0.77375 -1.99875,0.77375 -1.26375,0 -1.66375,-0.71 -1.66375,-1.295 0,-1.1075 1.105,-1.265 1.9675,-1.3925 0.735,-0.10875 1.775,-0.315 2.31875,-0.52 l 0,0.5125 z"
       id="path272"
       style="fill:#7cc242;fill-opacity:1;fill-rule:nonzero;stroke:none" />
    <path
       d="m 707.13738,617.73933 c -0.23875,0.0475 -0.59,0.1275 -1.05125,0.1275 -1.94625,0 -1.94625,-1.15875 -1.94625,-2.52625 l 0,-4.74 -1.02,0 0,-1.08375 1.02,0 0,-2.055 1.405,-0.84375 0,2.89875 1.4025,0 0,1.08375 -1.4025,0 0,4.82 c 0,0.6675 0,1.145 0.78,1.145 0.24,0 0.4625,-0.0325 0.6225,-0.065 l 0.19,1.23875 z"
       id="path276"
       style="fill:#7cc242;fill-opacity:1;fill-rule:nonzero;stroke:none" />
    <path
       d="m 708.34938,617.75733 1.40625,0 0,-8.24125 -1.40625,0 0,8.24125 z m 0,-9.81625 1.40625,0 0,-1.59375 -1.40625,0 0,1.59375 z"
       id="path278"
       style="fill:#7cc242;fill-opacity:1;fill-rule:nonzero;stroke:none" />
    <path
       d="m 711.39763,613.63645 c 0,0.6225 0.0475,1.96125 0.8125,2.9175 0.78,0.96625 1.9375,1.39375 3.04875,1.39375 1.09625,0 2.25375,-0.44375 3.035,-1.39375 0.38,-0.4625 0.8275,-1.275 0.8275,-3.045 0,-3.155 -2.13125,-4.1825 -3.8625,-4.1825 -1.07875,0 -2.26875,0.41125 -3.01625,1.3625 -0.70125,0.89125 -0.845,2.055 -0.845,2.9475 m 1.43375,0 c 0,-2.67875 1.55625,-3.1725 2.4275,-3.1725 1.2525,0 2.42875,0.92625 2.42875,3.125 0,1.3075 -0.445,3.22 -2.42875,3.22 -0.825,0 -2.4275,-0.47875 -2.4275,-3.1725"
       id="path282"
       style="fill:#7cc242;fill-opacity:1;fill-rule:nonzero;stroke:none" />
    <path
       d="m 720.77013,609.51658 1.26125,0 0,1.17125 0.0312,0 c 0.81125,-1.2475 2.03625,-1.35875 2.59,-1.35875 0.86,0 1.99,0.31875 2.46875,1.215 0.36875,0.68375 0.36875,1.27125 0.36875,2.145 l 0,5.06875 -1.405,0 0,-5.00625 c 0,-0.715 0,-2.2075 -1.7175,-2.2075 -0.79375,0 -1.605,0.4125 -1.90625,1.0325 -0.26875,0.5875 -0.28625,1.1925 -0.28625,1.685 l 0,4.49625 -1.405,0 0,-8.24125 z"
       id="path286"
       style="fill:#7cc242;fill-opacity:1;fill-rule:nonzero;stroke:none" />
    <path
       d="m 730.73963,612.06483 c 0.17625,-0.695 0.4,-1.6 2.15875,-1.6 2.06375,0 2.0475,1.17875 2.01625,2.07375 -0.8,0.285 -2.32,0.4425 -2.5275,0.47375 -0.91,0.11125 -3.25125,0.38 -3.25125,2.56125 0,1.36125 1.00125,2.37125 2.82125,2.37125 0.8925,0 1.86875,-0.2075 3.05125,-1.2175 0.0325,0.22125 0.065,0.6025 0.28875,1.03 l 1.4675,0 c -0.44625,-0.7925 -0.44625,-1.33125 -0.44625,-3.44 l 0,-1.8725 c 0,-1.44625 0,-3.11875 -3.2125,-3.11875 -3.1925,0 -3.5725,1.8175 -3.73125,2.56 l 1.365,0.17875 z m 4.175,2.0775 c 0,0.6725 -0.0638,1.32125 -0.625,1.92125 -0.655,0.69625 -1.6,0.77375 -1.9975,0.77375 -1.26625,0 -1.66375,-0.71 -1.66375,-1.295 0,-1.1075 1.1025,-1.265 1.96625,-1.3925 0.735,-0.10875 1.775,-0.315 2.32,-0.52 l 0,0.5125 z"
       id="path290"
       style="fill:#7cc242;fill-opacity:1;fill-rule:nonzero;stroke:none" />
    <path
       d="m 738.45688,606.34483 1.405,0 0,11.4125 -1.405,0 0,-11.4125 z"
       id="path292"
       style="fill:#7cc242;fill-opacity:1;fill-rule:nonzero;stroke:none" />
  </g>
</svg>
